<svg class="img-fluid" id="outputsvg" xmlns="http://www.w3.org/2000/svg" style="transform: matrix(2.8561, 0, 0, 2.8561, -12.5349, 12.7065); transform-origin: 50% 50% 0px; cursor: move; transition: transform 200ms ease-in-out 0s;" width="69" height="68" viewBox="0 0 690 680"><g id="l72CKBcsjm05C0eJfIZrqSY" fill="rgb(255,45,0)" style="transform: none; transform-origin: 50% 50% 0px;"><g style="transform: none;"><path id="pb1h3WK76" d="M142 563 c29 -43 56 -81 59 -86 3 -4 72 3 152 17 l147 25 60 52 c33 28 57 56 54 60 -3 5 -122 9 -265 9 l-260 0 53 -77z"></path><path id="pzecF3yN4" d="M26 588 c-7 -29 -8 -498 0 -498 7 0 87 54 135 91 l36 28 -25 148 -24 148 -51 53 c-28 28 -54 52 -58 52 -4 0 -9 -10 -13 -22z"></path><path id="pCJCsc935" d="M565 528 c-38 -27 -76 -55 -82 -61 -10 -10 -7 -44 13 -162 l25 -150 52 -52 c28 -29 55 -49 59 -45 5 5 7 123 6 264 l-3 255 -70 -49z"></path><path id="p2SajoNhz" d="M309 171 l-147 -26 -56 -49 c-31 -27 -56 -53 -56 -57 0 -15 88 -20 308 -17 l223 3 -51 75 c-29 41 -57 80 -63 86 -9 8 -52 4 -158 -15z"></path></g></g></svg>