<?xml version="1.0" encoding="UTF-8" standalone="no"?>
<svg
   version="1.0"
   width="298.18298pt"
   height="37pt"
   viewBox="0 0 298.18298 36.999999"
   preserveAspectRatio="xMidYMid meet"
   id="svg84"
   sodipodi:docname="brand.svg"
   inkscape:version="1.1 (c68e22c387, 2021-05-23)"
   xmlns:inkscape="http://www.inkscape.org/namespaces/inkscape"
   xmlns:sodipodi="http://sodipodi.sourceforge.net/DTD/sodipodi-0.dtd"
   xmlns="http://www.w3.org/2000/svg"
   xmlns:svg="http://www.w3.org/2000/svg">
  <defs
     id="defs88" />
  <sodipodi:namedview
     id="namedview86"
     pagecolor="#505050"
     bordercolor="#ffffff"
     borderopacity="1"
     inkscape:pageshadow="0"
     inkscape:pageopacity="0"
     inkscape:pagecheckerboard="1"
     inkscape:document-units="pt"
     showgrid="false"
     inkscape:zoom="2.3493976"
     inkscape:cx="205.79744"
     inkscape:cy="-58.31282"
     inkscape:window-width="1366"
     inkscape:window-height="706"
     inkscape:window-x="-8"
     inkscape:window-y="-8"
     inkscape:window-maximized="1"
     inkscape:current-layer="svg84" />
  <path
     d="M 10.971983,1.5 C -2.4145468,6.3 -3.913039,25.2 8.4744966,32.4 12.969973,35.1 20.862032,35.1 25.257609,32.5 28.95389,30.3 29.253588,29 26.456403,26.5 24.758112,25 24.058815,24.9 21.861027,25.8 16.366555,28.4 11.471481,26.9 8.8740945,21.8 6.076909,16.3 9.0738934,9.4 15.167762,7.6 c 1.198793,-0.4 3.79618,0 5.894069,0.9 3.396582,1.4 3.89608,1.4 5.594371,-0.1 C 29.253588,6 28.95389,4.3 25.557308,2.6 21.16173,0.3 15.46746,-0.2 10.971983,1.5 Z m 11.488441,3.1 c 0,0.8 -0.399598,1.2 -0.998995,0.9 -0.499498,-0.3 -0.998995,-1 -0.998995,-1.6 0,-0.5 0.499497,-0.9 0.998995,-0.9 0.599397,0 0.998995,0.7 0.998995,1.6 z"
     id="path4"
     style="fill:#ffffff;fill-opacity:1;stroke:none;stroke-width:0.0999497" />
  <path
     d="m 108.97337,1.1 c -0.79919,2.2 -5.59437,28.8 -5.59437,31 0,1.5 0.6993,1.9 3.39658,1.9 3.89608,0 4.59538,-1.1 4.59538,-7.3 0,-3.9 1.29869,-7.7 2.29769,-6.7 0.2997,0.3 2.09789,3.8 4.09588,7.8 1.99799,3.9 3.99598,7.2 4.39557,7.2 0.4995,0 2.59739,-3.4 4.79518,-7.5 2.09789,-4.1 4.19578,-7.5 4.49548,-7.5 0.29969,0 0.89909,2.7 1.29869,6.1 0.2997,3.3 0.7992,6.5 1.19879,7 0.2997,0.5 2.09789,0.9 3.99598,0.9 3.39658,0 3.49648,-0.1 2.89709,-3.3 -0.2997,-1.7 -1.59839,-9.2 -2.79719,-16.6 -1.19879,-7.4 -2.69728,-13.6 -3.19678,-13.8 -0.5994,-0.1 -3.19678,3.9 -5.89407,9 -2.69729,5 -5.29467,9.8 -5.89407,10.5 -0.6993,0.9 -2.39759,-1.3 -6.39357,-8.5 -6.09386,-11 -6.99296,-12.3 -7.69226,-10.2 z m -0.2997,19.8 c 0.2997,1.3 0.0999,1.8 -0.89909,1.4 -0.6993,-0.2 -0.999,-1.1 -0.6993,-1.9 0.6993,-1.9 0.999,-1.8 1.59839,0.5 z m 0.0999,5.8 c -0.19979,4.8 -0.39959,5.3 -1.79819,4.7 -1.09889,-0.4 -1.39859,-1.9 -0.69929,-4.2 0.0999,-0.1 0.0999,-0.5 0,-0.8 0,-0.5 1.39859,-1.8 2.59738,-2.4 0.0999,0 0,1.2 -0.0999,2.7 z m 29.57025,5.4 c 0,0.6 -0.3996,0.7 -0.99899,0.4 -0.4995,-0.3 -0.999,-1.1 -0.999,-1.6 0,-0.6 0.4995,-0.7 0.999,-0.4 0.59939,0.3 0.99899,1.1 0.99899,1.6 z"
     id="path6"
     style="fill:#ffffff;fill-opacity:1;stroke:none;stroke-width:0.0999497" />
  <path
     d="m 159.02301,1.4 c -4.99497,1.8 -7.19276,3.9 -9.69025,9 -2.49748,5.2 -2.49748,8.9 -0.0999,14.2 4.39558,9.7 17.48241,13.3 24.87497,6.8 l 2.69729,-2.3 -2.19779,-2.2 c -1.89809,-2 -2.59738,-2.1 -4.79517,-1.1 -5.59437,2.6 -10.48945,1.1 -13.08684,-4 -2.79718,-5.5 0.1998,-12.4 6.29367,-14.2 1.1988,-0.4 3.79618,0 5.89407,0.9 3.39658,1.4 3.89608,1.4 5.59437,-0.1 2.59739,-2.4 2.29769,-4.1 -1.09889,-5.8 -4.39558,-2.3 -10.08985,-2.8 -14.38553,-1.2 z M 170.31165,4 c 0,0.5 -0.39959,1 -0.99899,1 -0.4995,0 -0.999,-0.5 -0.999,-1 0,-0.6 0.4995,-1 0.999,-1 0.5994,0 0.99899,0.4 0.99899,1 z"
     id="path8"
     style="fill:#ffffff;fill-opacity:1;stroke:none;stroke-width:0.0999497" />
  <path
     d="m 187.89396,16.5 c -4.19578,9.1 -7.59236,16.7 -7.59236,17 0,0.3 1.49849,0.5 3.39658,0.5 2.49749,0 3.79618,-0.6 4.99498,-2.5 1.49849,-2.2 2.39759,-2.5 7.59236,-2.5 5.19477,0 6.09387,0.3 7.59236,2.5 1.19879,1.9 2.49749,2.5 4.99497,2.5 1.89809,0 3.39659,-0.3 3.39659,-0.6 0,-1.4 -15.28462,-33.4 -15.98392,-33.4 -0.3996,0 -4.19578,7.4 -8.39156,16.5 z m 10.28965,2.6 c 0.5994,1.8 1.09889,3.4 1.09889,3.5 0,0.2 -1.29869,0.4 -2.99698,0.4 -3.29668,0 -3.59638,-0.7 -1.79819,-4.5 1.49849,-3.3 2.39759,-3.2 3.69628,0.6 z"
     id="path10"
     style="fill:#ffffff;fill-opacity:1;stroke:none;stroke-width:0.0999497" />
  <path
     d="m 195.28652,20.1 c 0,0.5 0.4995,0.7 0.999,0.4 0.5994,-0.3 0.99899,-0.8 0.99899,-1.1 0,-0.2 -0.39959,-0.4 -0.99899,-0.4 -0.4995,0 -0.999,0.5 -0.999,1.1 z"
     id="path12"
     style="fill:#ffffff;fill-opacity:1;stroke:none;stroke-width:0.0999497" />
  <path
     d="m 222.65898,1.4 c -1.69829,0.8 -3.89608,2.4 -4.79517,3.7 -3.39659,4.9 -1.1988,9.8 6.49346,14.4 4.19578,2.4 5.39457,3.7 5.39457,5.6 0,3 -3.09688,3.7 -7.39256,1.5 -2.99698,-1.6 -3.09688,-1.6 -4.49547,1.3 -1.79819,3.5 -1.0989,4.4 5.09487,6 7.09286,1.9 13.38653,-0.7 15.28462,-6.3 1.89809,-5.7 -0.1998,-8.9 -8.89105,-13.6 -7.59236,-4.2 -6.09387,-8.7 1.99799,-6 3.59638,1.2 4.09588,1.2 5.39457,-0.6 1.79819,-2.4 1.49849,-3.6 -1.59839,-5.1 -4.19578,-2 -9.19076,-2.4 -12.48744,-0.9 z m 2.99699,2.4 c 0.29969,0.5 -0.0999,0.9 -0.8991,0.9 -0.7992,0 -1.19879,-0.4 -0.89909,-0.9 0.29969,-0.4 0.69929,-0.8 0.89909,-0.8 0.1998,0 0.5994,0.4 0.8991,0.8 z M 236.24531,27 c 0,0.5 -0.4995,1 -1.09889,1 -0.4995,0 -0.6993,-0.5 -0.3996,-1 0.2997,-0.6 0.79919,-1 1.09889,-1 0.1998,0 0.3996,0.4 0.3996,1 z"
     id="path14"
     style="fill:#ffffff;fill-opacity:1;stroke:none;stroke-width:0.0999497" />
  <path
     d="m 279.70158,1.4 c -9.09085,4 -7.69226,13.3 2.69729,18.7 4.39558,2.2 6.29367,5 4.59538,6.7 -1.59839,1.6 -4.29568,1.5 -7.89206,-0.3 -2.79719,-1.5 -2.99699,-1.5 -3.99598,0.9 -1.69829,3.7 -0.5994,5.2 4.99497,6.6 8.39156,2 14.58533,-1.2 15.68422,-8.1 0.6993,-4.4 -1.79819,-7.7 -9.09085,-11.8 -8.09186,-4.6 -6.89307,-8.9 1.69829,-6 3.69628,1.2 4.19578,1.1 5.39457,-0.6 1.79819,-2.4 1.39859,-3.7 -1.69829,-5.2 -4.09588,-2 -9.19075,-2.4 -12.38754,-0.9 z M 278.20309,30 c 0,0.5 -0.1998,1 -0.3996,1 -0.29969,0 -0.79919,-0.5 -1.09889,-1 -0.2997,-0.6 -0.0999,-1 0.3996,-1 0.5994,0 1.09889,0.4 1.09889,1 z"
     id="path16"
     style="fill:#ffffff;fill-opacity:1;stroke:none;stroke-width:0.0999497" />
  <path
     d="M 36.446351,17.5 V 34 h 3.496482 3.496481 V 27.5 21 h 6.992964 6.992964 v 6.5 6.5 h 3.496481 3.496482 V 17.5 1 H 60.921723 57.425242 V 7.5 14 H 50.432278 43.439314 V 7.5 1 h -3.496481 -3.496482 z m 4.994974,12.9 c 0,1.3 -2.897085,3.1 -3.696281,2.3 -0.199799,-0.2 -0.0999,-1.2 0.299699,-2.1 0.799195,-2 3.396582,-2.1 3.396582,-0.2 z"
     id="path18"
     style="fill:#ffffff;fill-opacity:1;stroke:none;stroke-width:0.0999497" />
  <path
     d="M 75.407148,17.5 V 34 H 85.996493 96.485938 L 96.18624,30.7 95.886541,27.5 89.193276,27.2 c -6.793164,-0.3 -6.793164,-0.3 -6.793164,-3.2 0,-2.8 0.0999,-2.9 5.79417,-3.2 5.59437,-0.3 5.69427,-0.3 5.993968,-3.6 L 94.487949,14 H 88.49398 c -6.093868,0 -6.093868,0 -6.093868,-3 0,-2.9 0,-2.9 6.793164,-3.2 L 95.886541,7.5 96.18624,4.2 96.485938,1 H 85.996493 75.407148 Z"
     id="path20"
     style="fill:#ffffff;fill-opacity:1;stroke:none;stroke-width:0.0999497" />
  <path
     d="m 244.43707,4.2 c 0.2997,2.9 0.5994,3.2 3.79618,3.3 h 3.49648 l 0.2997,13.2 0.2997,13.3 h 3.89608 3.89608 l 0.2997,-13.3 0.29969,-13.2 3.29669,-0.3 c 2.79718,-0.3 3.19678,-0.7 3.19678,-3.3 V 1 h -11.58834 -11.48844 z"
     id="path22"
     style="fill:#ffffff;fill-opacity:1;stroke:none;stroke-width:0.0999497" />
  <path
     d="m 45.737002,7.5 c 0,2.7 0.199799,3.8 0.399598,2.2 0.199799,-1.5 0.199799,-3.7 0,-5 -0.199799,-1.2 -0.399598,0 -0.399598,2.8 z"
     id="path24"
     style="fill:#ffffff;fill-opacity:1;stroke:none;stroke-width:0.0999497" />
  <path
     d="m 66.815793,15.5 c 0,7.2 0.0999,9.9 0.299698,6.2 0.199799,-3.7 0.199799,-9.6 0,-13 -0.199799,-3.4 -0.299698,-0.4 -0.299698,6.8 z"
     id="path26"
     style="fill:#ffffff;fill-opacity:1;stroke:none;stroke-width:0.0999497" />
  <path
     d="m 98.483928,4.7 c 0,1.2 -0.399598,3 -0.699296,4 -0.499498,1.7 -0.499498,1.7 0.599396,0 0.599397,-1 0.899096,-2.8 0.699297,-4 -0.399598,-2.2 -0.399598,-2.2 -0.599397,0 z"
     id="path28"
     style="fill:#ffffff;fill-opacity:1;stroke:none;stroke-width:0.0999497" />
  <path
     d="m 269.41194,6 c 0,1.9 0.1998,2.7 0.4995,1.7 0.19979,-0.9 0.19979,-2.5 0,-3.5 -0.2997,-0.9 -0.4995,-0.1 -0.4995,1.8 z"
     id="path30"
     style="fill:#ffffff;fill-opacity:1;stroke:none;stroke-width:0.0999497" />
  <path
     d="m 238.0435,8 c -0.89909,1.7 -1.29869,3 -0.89909,3 1.39859,0 3.29668,-2.8 2.89708,-4.4 -0.1998,-1.1 -0.79919,-0.7 -1.99799,1.4 z"
     id="path32"
     style="fill:#ffffff;fill-opacity:1;stroke:none;stroke-width:0.0999497" />
  <path
     d="m 294.98621,8 c -0.8991,1.7 -1.2987,3 -0.8991,3 1.39859,0 3.29668,-2.8 2.89708,-4.4 C 296.7844,5.5 296.185,5.9 294.98621,8 Z"
     id="path34"
     style="fill:#ffffff;fill-opacity:1;stroke:none;stroke-width:0.0999497" />
  <path
     d="m 27.655197,9.1 c -1.298694,1.6 -1.89809,2.9 -1.498493,2.9 1.098895,0 5.294673,-4.3 5.294673,-5.3 0,-1.5 -1.598392,-0.5 -3.79618,2.4 z"
     id="path36"
     style="fill:#ffffff;fill-opacity:1;stroke:none;stroke-width:0.0999497" />
  <path
     d="m 175.50643,8.7 c -1.2987,1.4 -2.09789,2.8 -1.79819,3.1 0.69929,0.6 5.59437,-3.7 5.59437,-5 0,-1.4 -1.3986,-0.7 -3.79618,1.9 z"
     id="path38"
     style="fill:#ffffff;fill-opacity:1;stroke:none;stroke-width:0.0999497" />
  <path
     d="m 225.75587,9 c -0.2997,0.5 -0.1998,1 0.39959,1 0.4995,0 1.2987,-0.5 1.5984,-1 0.29969,-0.6 0.19979,-1 -0.3996,-1 -0.4995,0 -1.2987,0.4 -1.59839,1 z"
     id="path40"
     style="fill:#ffffff;fill-opacity:1;stroke:none;stroke-width:0.0999497" />
  <path
     d="m 283.19807,9.1 c 0,0.5 0.49949,0.7 0.99899,0.4 0.5994,-0.3 0.999,-0.8 0.999,-1.1 0,-0.2 -0.3996,-0.4 -0.999,-0.4 -0.4995,0 -0.99899,0.5 -0.99899,1.1 z"
     id="path42"
     style="fill:#ffffff;fill-opacity:1;stroke:none;stroke-width:0.0999497" />
  <path
     d="m 11.970978,11.5 c -1.79819,1.7 -2.4974866,3.4 -2.3975872,5.7 0.0999,2.7 0.2996985,2.9 0.5993972,0.8 0.699296,-3.3 3.896079,-7.3 6.593365,-8.2 2.197789,-0.6 2.197789,-0.6 -0.0999,-0.7 -1.298693,-0.1 -3.396583,1 -4.695275,2.4 z"
     id="path44"
     style="fill:#ffffff;fill-opacity:1;stroke:none;stroke-width:0.0999497" />
  <path
     d="m 83.898604,10.1 c -0.399598,0.6 -0.499498,1.2 -0.199799,1.5 0.199799,0.3 0.699296,-0.2 0.998995,-1.1 0.699296,-1.7 0.0999,-2 -0.799196,-0.4 z"
     id="path46"
     style="fill:#ffffff;fill-opacity:1;stroke:none;stroke-width:0.0999497" />
  <path
     d="m 159.82221,11.5 c -1.59839,1.5 -2.49749,3.5 -2.39759,5.2 0.0999,2.1 0.2997,2.3 0.5994,0.8 0.79919,-3 4.19578,-6.9 6.59336,-7.7 2.19779,-0.6 2.19779,-0.6 -0.0999,-0.7 -1.29869,-0.1 -3.39658,1 -4.69527,2.4 z"
     id="path48"
     style="fill:#ffffff;fill-opacity:1;stroke:none;stroke-width:0.0999497" />
  <path
     d="m 261.02038,22.5 c -0.1998,7.4 0,13.5 0.4995,13.5 0.3996,0 0.6993,-6.1 0.6993,-13.5 0,-7.4 -0.1998,-13.5 -0.3996,-13.5 -0.2997,0 -0.5994,6.1 -0.7992,13.5 z"
     id="path50"
     style="fill:#ffffff;fill-opacity:1;stroke:none;stroke-width:0.0999497" />
  <path
     d="m 95.187245,19.5 c -0.199799,1.9 0,3.5 0.399598,3.5 0.399598,0 0.799196,-1.6 0.799196,-3.5 0,-1.9 -0.199799,-3.5 -0.399598,-3.5 -0.199799,0 -0.599397,1.6 -0.799196,3.5 z"
     id="path52"
     style="fill:#ffffff;fill-opacity:1;stroke:none;stroke-width:0.0999497" />
  <path
     d="m 45.237505,29 c -0.199799,3.9 0,7 0.499497,7 0.399598,0 0.699297,-3.2 0.699297,-7 0,-3.9 -0.199799,-7 -0.399598,-7 -0.199799,0 -0.599397,3.2 -0.799196,7 z"
     id="path54"
     style="fill:#ffffff;fill-opacity:1;stroke:none;stroke-width:0.0999497" />
  <path
     d="m 127.85438,29.7 c -3.69629,7.2 -4.09588,8.3 -1.99799,5.8 2.39758,-2.9 5.69427,-9.5 5.29467,-10.6 -0.1998,-0.6 -1.69829,1.6 -3.29668,4.8 z"
     id="path56"
     style="fill:#ffffff;fill-opacity:1;stroke:none;stroke-width:0.0999497" />
  <path
     d="m 240.34119,26.2 c -0.0999,3.5 -3.99598,7.9 -8.19176,9.4 -2.29769,0.8 -2.69728,1.3 -1.39859,1.3 2.69729,0.1 8.09186,-3.3 9.49045,-5.9 0.5994,-1.2 0.8991,-3.3 0.6993,-4.8 l -0.3996,-2.7 z"
     id="path58"
     style="fill:#ffffff;fill-opacity:1;stroke:none;stroke-width:0.0999497" />
  <path
     d="m 112.96935,28.7 c -0.3996,2.1 -0.89909,4.6 -1.19879,5.5 -0.2997,1 -0.0999,1.8 0.3996,1.8 0.49949,0 1.19879,-2.3 1.49849,-5.2 0.79919,-6.1 0.1998,-7.6 -0.6993,-2.1 z"
     id="path60"
     style="fill:#ffffff;fill-opacity:1;stroke:none;stroke-width:0.0999497" />
  <path
     d="m 297.18399,27.4 c 0,2.4 -4.99497,7.5 -8.29165,8.6 l -3.19679,1 3.49649,-0.5 c 3.89607,-0.6 8.99095,-5.3 8.99095,-8.5 0,-1.1 -0.1998,-2 -0.4995,-2 -0.2997,0 -0.4995,0.6 -0.4995,1.4 z"
     id="path62"
     style="fill:#ffffff;fill-opacity:1;stroke:none;stroke-width:0.0999497" />
  <path
     d="m 66.715893,32.5 c 0,2.2 0.199799,3 0.399598,1.7 0.199799,-1.2 0.199799,-3 0,-4 -0.299698,-0.9 -0.499497,0.1 -0.399598,2.3 z"
     id="path64"
     style="fill:#ffffff;fill-opacity:1;stroke:none;stroke-width:0.0999497" />
  <path
     d="m 98.483928,31.2 c 0,0.9 -0.399598,2.5 -0.699296,3.5 -0.499498,1.4 -0.399598,1.5 0.499497,0.7 0.699296,-0.7 1.098894,-2.2 0.799196,-3.5 -0.199799,-1.3 -0.499498,-1.6 -0.599397,-0.7 z"
     id="path66"
     style="fill:#ffffff;fill-opacity:1;stroke:none;stroke-width:0.0999497" />
  <path
     d="m 26.556302,33.6 c -1.997989,1.4 -2.797185,2.4 -1.79819,2.4 0.899095,0 2.897085,-1.1 4.395577,-2.5 3.596381,-3.1 1.89809,-3.1 -2.597387,0.1 z"
     id="path68"
     style="fill:#ffffff;fill-opacity:1;stroke:none;stroke-width:0.0999497" />
  <path
     d="m 174.40753,33.6 c -1.89809,1.3 -2.99698,2.4 -2.49748,2.4 1.09889,0 7.39256,-3.8 7.39256,-4.5 0,-1 -1.49849,-0.3 -4.89508,2.1 z"
     id="path70"
     style="fill:#ffffff;fill-opacity:1;stroke:none;stroke-width:0.0999497" />
  <path
     d="m 189.49235,33.5 c -0.59939,1.4 -0.79919,2.5 -0.29969,2.5 0.39959,0 1.29869,-1.1 1.89809,-2.5 0.59939,-1.4 0.79919,-2.5 0.29969,-2.5 -0.39959,0 -1.29869,1.1 -1.89809,2.5 z"
     id="path72"
     style="fill:#ffffff;fill-opacity:1;stroke:none;stroke-width:0.0999497" />
  <path
     d="m 142.4397,34.6 c 0,1.1 0.2997,1.4 0.5994,0.6 0.29969,-0.7 0.19979,-1.6 -0.0999,-1.9 -0.2997,-0.4 -0.5994,0.2 -0.4995,1.3 z"
     id="path74"
     style="fill:#ffffff;fill-opacity:1;stroke:none;stroke-width:0.0999497" />
  <path
     d="m 213.76793,35 c -0.2997,0.5 -0.0999,1 0.3996,1 0.59939,0 1.09889,-0.5 1.09889,-1 0,-0.6 -0.1998,-1 -0.3996,-1 -0.2997,0 -0.79919,0.4 -1.09889,1 z"
     id="path76"
     style="fill:#ffffff;fill-opacity:1;stroke:none;stroke-width:0.0999497" />
  <path
     d="m 18.764143,36.7 c 0.899095,0.2 2.297688,0.2 2.996984,0 0.599397,-0.3 -0.0999,-0.5 -1.79819,-0.5 -1.598392,0 -2.197789,0.2 -1.198794,0.5 z"
     id="path78"
     style="fill:#ffffff;fill-opacity:1;stroke:none;stroke-width:0.0999497" />
  <path
     d="m 166.11588,36.7 c 0.59939,0.2 1.79819,0.2 2.49748,0 0.5994,-0.3 0.0999,-0.5 -1.29869,-0.5 -1.39859,0 -1.89809,0.2 -1.19879,0.5 z"
     id="path80"
     style="fill:#ffffff;fill-opacity:1;stroke:none;stroke-width:0.0999497" />
</svg>
