<?xml version="1.0" encoding="UTF-8" standalone="no"?>
<svg
   version="1.0"
   width="298.48303pt"
   height="154.79333pt"
   viewBox="0 0 298.48303 154.79333"
   preserveAspectRatio="xMidYMid meet"
   id="svg84"
   sodipodi:docname="logo-brand.svg"
   inkscape:version="1.1 (c68e22c387, 2021-05-23)"
   xmlns:inkscape="http://www.inkscape.org/namespaces/inkscape"
   xmlns:sodipodi="http://sodipodi.sourceforge.net/DTD/sodipodi-0.dtd"
   xmlns="http://www.w3.org/2000/svg"
   xmlns:svg="http://www.w3.org/2000/svg">
  <defs
     id="defs88" />
  <sodipodi:namedview
     id="namedview86"
     pagecolor="#505050"
     bordercolor="#ffffff"
     borderopacity="1"
     inkscape:pageshadow="0"
     inkscape:pageopacity="0"
     inkscape:pagecheckerboard="1"
     inkscape:document-units="pt"
     showgrid="false"
     inkscape:zoom="2.3493976"
     inkscape:cx="198.98718"
     inkscape:cy="97.046154"
     inkscape:window-width="1366"
     inkscape:window-height="706"
     inkscape:window-x="-8"
     inkscape:window-y="-8"
     inkscape:window-maximized="1"
     inkscape:current-layer="svg84" />
  <path
     d="M 134.70491,1.1781418 C 103.03758,9.3765548 87.583175,43.263327 102.3739,71.957772 c 6.1628,11.933245 22.66015,24.413051 35.64944,27.054761 24.65121,4.919047 52.05198,-9.10935 57.5511,-29.423192 0.7585,-3.006084 1.23256,-5.556702 1.13775,-5.738888 -0.18963,-0.09109 -1.80144,2.459523 -3.60287,5.829982 -1.80143,3.370458 -3.88731,6.28545 -4.64581,6.467637 -1.13774,0.364374 -1.23256,0.182187 -0.37924,-0.819842 1.70662,-2.004056 4.26655,-13.39074 4.83543,-20.860405 0.28443,-5.010141 0.18962,-6.467637 -0.56888,-5.465609 -0.56887,0.728748 -1.04293,2.004057 -1.04293,2.732804 0,1.730776 -6.73168,15.485891 -7.49018,15.212611 -0.28444,-0.09109 -3.12881,2.459524 -6.1628,5.556702 -4.07693,4.099206 -7.77462,6.740917 -12.79967,9.109347 -6.63687,3.188272 -7.6798,3.370459 -15.73885,3.370459 -6.06799,-0.09109 -9.38642,-0.546561 -11.37748,-1.548589 -1.61181,-0.819842 -4.45618,-2.186244 -6.35243,-3.006085 -6.25762,-2.732804 -11.85155,-8.289506 -15.64404,-15.668078 -3.034,-5.921076 -3.50806,-7.834039 -3.88731,-14.848236 -0.47406,-8.65388 0.28444,-11.659965 4.64581,-20.496032 11.56711,-23.5021162 47.12174,-25.5972662 63.52428,-3.825926 1.51699,2.004057 2.74955,3.188272 2.74955,2.641711 0,-0.546561 -2.37031,-3.461552 -5.21468,-6.376543 -3.8873,-4.008113 -7.11092,-6.28545 -12.51523,-8.744974 -4.07693,-1.912963 -8.15386,-3.8259262 -9.00717,-4.2813932 -2.93918,-1.457496 -15.07516,-0.910935 -21.99647,1.002028 -3.60287,1.0020282 -6.82649,1.6396832 -7.01611,1.3664022 -0.28444,-0.27328 1.99106,-1.5485892 5.02505,-2.8238982 3.88731,-1.730776 7.77462,-2.64171 12.51524,-2.914991 3.79249,-0.27328 6.9213,-0.728748 6.9213,-1.093121 0,-0.910935 8.05905,0.54656 13.27373,2.459523 9.76567,3.4615522 17.82472,9.7470022 24.46158,19.0385372 0.66369,1.002028 0.47407,0.364374 -0.28443,-1.275309 -0.85331,-1.548589 -1.23256,-2.914991 -0.85331,-2.914991 0.28443,0 -0.85332,-1.639683 -2.46513,-3.643739 -1.61181,-2.004057 -3.31843,-3.461552 -3.69768,-3.188272 -0.47406,0.182187 -2.18068,-1.275308 -3.8873,-3.370458 -7.39537,-8.7449742 -29.1074,-13.9373022 -43.32925,-10.2935632 z m 49.1128,15.6680782 c 1.23256,1.457495 1.13775,1.548589 -0.28444,0.364374 -0.94812,-0.637655 -1.70662,-1.366403 -1.70662,-1.54859 0,-0.728747 0.7585,-0.27328 1.99106,1.184216 z"
     id="path2"
     style="fill:#ff2d00;fill-opacity:1;stroke:none;stroke-width:0.0929343" />
  <path
     d="m 10.983024,119.29333 c -13.4000004,4.8 -14.9000004,23.7 -2.5000004,30.9 4.5000004,2.7 12.4000004,2.7 16.8000004,0.1 3.7,-2.2 4,-3.5 1.2,-6 -1.7,-1.5 -2.4,-1.6 -4.6,-0.7 -5.5,2.6 -10.4,1.1 -13.0000004,-4 -2.8,-5.5 0.2,-12.4 6.3000004,-14.2 1.2,-0.4 3.8,0 5.9,0.9 3.4,1.4 3.9,1.4 5.6,-0.1 2.6,-2.4 2.3,-4.1 -1.1,-5.8 -4.4,-2.3 -10.1,-2.8 -14.6,-1.1 z m 11.5,3.1 c 0,0.8 -0.4,1.2 -1,0.9 -0.5,-0.3 -1,-1 -1,-1.6 0,-0.5 0.5,-0.9 1,-0.9 0.6,0 1,0.7 1,1.6 z"
     id="path4"
     style="fill:#ff2d00;fill-opacity:1;stroke:none;stroke-width:0.1" />
  <path
     d="m 109.08302,118.89333 c -0.8,2.2 -5.6,28.8 -5.6,31 0,1.5 0.7,1.9 3.4,1.9 3.9,0 4.6,-1.1 4.6,-7.3 0,-3.9 1.3,-7.7 2.3,-6.7 0.3,0.3 2.1,3.8 4.1,7.8 2,3.9 4,7.2 4.4,7.2 0.5,0 2.6,-3.4 4.8,-7.5 2.1,-4.1 4.2,-7.5 4.5,-7.5 0.3,0 0.9,2.7 1.3,6.1 0.3,3.3 0.8,6.5 1.2,7 0.3,0.5 2.1,0.9 4,0.9 3.4,0 3.5,-0.1 2.9,-3.3 -0.3,-1.7 -1.6,-9.2 -2.8,-16.6 -1.2,-7.4 -2.7,-13.6 -3.2,-13.8 -0.6,-0.1 -3.2,3.9 -5.9,9 -2.7,5 -5.3,9.8 -5.9,10.5 -0.7,0.9 -2.4,-1.3 -6.4,-8.5 -6.1,-11 -7,-12.3 -7.7,-10.2 z m -0.3,19.8 c 0.3,1.3 0.1,1.8 -0.9,1.4 -0.7,-0.2 -1,-1.1 -0.7,-1.9 0.7,-1.9 1,-1.8 1.6,0.5 z m 0.1,5.8 c -0.2,4.8 -0.4,5.3 -1.8,4.7 -1.1,-0.4 -1.4,-1.9 -0.7,-4.2 0.1,-0.1 0.1,-0.5 0,-0.8 0,-0.5 1.4,-1.8 2.6,-2.4 0.1,0 0,1.2 -0.1,2.7 z m 29.6,5.4 c 0,0.6 -0.4,0.7 -1,0.4 -0.5,-0.3 -1,-1.1 -1,-1.6 0,-0.6 0.5,-0.7 1,-0.4 0.6,0.3 1,1.1 1,1.6 z"
     id="path6"
     style="fill:#ff2d00;fill-opacity:1;stroke:none;stroke-width:0.1" />
  <path
     d="m 159.18302,119.19333 c -5,1.8 -7.2,3.9 -9.7,9 -2.5,5.2 -2.5,8.9 -0.1,14.2 4.4,9.7 17.5,13.3 24.9,6.8 l 2.7,-2.3 -2.2,-2.2 c -1.9,-2 -2.6,-2.1 -4.8,-1.1 -5.6,2.6 -10.5,1.1 -13.1,-4 -2.8,-5.5 0.2,-12.4 6.3,-14.2 1.2,-0.4 3.8,0 5.9,0.9 3.4,1.4 3.9,1.4 5.6,-0.1 2.6,-2.4 2.3,-4.1 -1.1,-5.8 -4.4,-2.3 -10.1,-2.8 -14.4,-1.2 z m 11.3,2.6 c 0,0.5 -0.4,1 -1,1 -0.5,0 -1,-0.5 -1,-1 0,-0.6 0.5,-1 1,-1 0.6,0 1,0.4 1,1 z"
     id="path8"
     style="fill:#ff2d00;fill-opacity:1;stroke:none;stroke-width:0.1" />
  <path
     d="m 188.08302,134.29333 c -4.2,9.1 -7.6,16.7 -7.6,17 0,0.3 1.5,0.5 3.4,0.5 2.5,0 3.8,-0.6 5,-2.5 1.5,-2.2 2.4,-2.5 7.6,-2.5 5.2,0 6.1,0.3 7.6,2.5 1.2,1.9 2.5,2.5 5,2.5 1.9,0 3.4,-0.3 3.4,-0.6 0,-1.4 -15.3,-33.4 -16,-33.4 -0.4,0 -4.2,7.4 -8.4,16.5 z m 10.3,2.6 c 0.6,1.8 1.1,3.4 1.1,3.5 0,0.2 -1.3,0.4 -3,0.4 -3.3,0 -3.6,-0.7 -1.8,-4.5 1.5,-3.3 2.4,-3.2 3.7,0.6 z"
     id="path10"
     style="fill:#ff2d00;fill-opacity:1;stroke:none;stroke-width:0.1" />
  <path
     d="m 195.48302,137.89333 c 0,0.5 0.5,0.7 1,0.4 0.6,-0.3 1,-0.8 1,-1.1 0,-0.2 -0.4,-0.4 -1,-0.4 -0.5,0 -1,0.5 -1,1.1 z"
     id="path12"
     style="fill:#ff2d00;fill-opacity:1;stroke:none;stroke-width:0.1" />
  <path
     d="m 222.88302,119.19333 c -1.7,0.8 -3.9,2.4 -4.8,3.7 -3.4,4.9 -1.2,9.8 6.5,14.4 4.2,2.4 5.4,3.7 5.4,5.6 0,3 -3.1,3.7 -7.4,1.5 -3,-1.6 -3.1,-1.6 -4.5,1.3 -1.8,3.5 -1.1,4.4 5.1,6 7.1,1.9 13.4,-0.7 15.3,-6.3 1.9,-5.7 -0.2,-8.9 -8.9,-13.6 -7.6,-4.2 -6.1,-8.7 2,-6 3.6,1.2 4.1,1.2 5.4,-0.6 1.8,-2.4 1.5,-3.6 -1.6,-5.1 -4.2,-2 -9.2,-2.4 -12.5,-0.9 z m 3,2.4 c 0.3,0.5 -0.1,0.9 -0.9,0.9 -0.8,0 -1.2,-0.4 -0.9,-0.9 0.3,-0.4 0.7,-0.8 0.9,-0.8 0.2,0 0.6,0.4 0.9,0.8 z m 10.6,23.2 c 0,0.5 -0.5,1 -1.1,1 -0.5,0 -0.7,-0.5 -0.4,-1 0.3,-0.6 0.8,-1 1.1,-1 0.2,0 0.4,0.4 0.4,1 z"
     id="path14"
     style="fill:#ff2d00;fill-opacity:1;stroke:none;stroke-width:0.1" />
  <path
     d="m 279.98302,119.19333 c -9.1,4 -7.7,13.3 2.7,18.7 4.4,2.2 6.3,5 4.6,6.7 -1.6,1.6 -4.3,1.5 -7.9,-0.3 -2.8,-1.5 -3,-1.5 -4,0.9 -1.7,3.7 -0.6,5.2 5,6.6 8.4,2 14.6,-1.2 15.7,-8.1 0.7,-4.4 -1.8,-7.7 -9.1,-11.8 -8.1,-4.6 -6.9,-8.9 1.7,-6 3.7,1.2 4.2,1.1 5.4,-0.6 1.8,-2.4 1.4,-3.7 -1.7,-5.2 -4.1,-2 -9.2,-2.4 -12.4,-0.9 z m -1.5,28.6 c 0,0.5 -0.2,1 -0.4,1 -0.3,0 -0.8,-0.5 -1.1,-1 -0.3,-0.6 -0.1,-1 0.4,-1 0.6,0 1.1,0.4 1.1,1 z"
     id="path16"
     style="fill:#ff2d00;fill-opacity:1;stroke:none;stroke-width:0.1" />
  <path
     d="m 36.483024,135.29333 v 16.5 h 3.5 3.5 v -6.5 -6.5 h 7 7 v 6.5 6.5 h 3.5 3.5 v -16.5 -16.5 h -3.5 -3.5 v 6.5 6.5 h -7 -7 v -6.5 -6.5 h -3.5 -3.5 z m 5,12.9 c 0,1.3 -2.9,3.1 -3.7,2.3 -0.2,-0.2 -0.1,-1.2 0.3,-2.1 0.8,-2 3.4,-2.1 3.4,-0.2 z"
     id="path18"
     style="fill:#ff2d00;fill-opacity:1;stroke:none;stroke-width:0.1" />
  <path
     d="m 75.483024,135.29333 v 16.5 h 10.6 10.5 l -0.3,-3.3 -0.3,-3.2 -6.7,-0.3 c -6.8,-0.3 -6.8,-0.3 -6.8,-3.2 0,-2.8 0.1,-2.9 5.8,-3.2 5.6,-0.3 5.7,-0.3 6,-3.6 l 0.3,-3.2 h -6 c -6.1,0 -6.1,0 -6.1,-3 0,-2.9 0,-2.9 6.8,-3.2 l 6.7,-0.3 0.3,-3.3 0.3,-3.2 h -10.5 -10.6 z"
     id="path20"
     style="fill:#ff2d00;fill-opacity:1;stroke:none;stroke-width:0.1" />
  <path
     d="m 244.68302,121.99333 c 0.3,2.9 0.6,3.2 3.8,3.3 h 3.5 l 0.3,13.2 0.3,13.3 h 3.9 3.9 l 0.3,-13.3 0.3,-13.2 3.3,-0.3 c 2.8,-0.3 3.2,-0.7 3.2,-3.3 v -2.9 h -11.6 -11.5 z"
     id="path22"
     style="fill:#ff2d00;fill-opacity:1;stroke:none;stroke-width:0.1" />
  <path
     d="m 45.783024,125.29333 c 0,2.7 0.2,3.8 0.4,2.2 0.2,-1.5 0.2,-3.7 0,-5 -0.2,-1.2 -0.4,0 -0.4,2.8 z"
     id="path24"
     style="fill:#ff2d00;fill-opacity:1;stroke:none;stroke-width:0.1" />
  <path
     d="m 66.883024,133.29333 c 0,7.2 0.1,9.9 0.3,6.2 0.2,-3.7 0.2,-9.6 0,-13 -0.2,-3.4 -0.3,-0.4 -0.3,6.8 z"
     id="path26"
     style="fill:#ff2d00;fill-opacity:1;stroke:none;stroke-width:0.1" />
  <path
     d="m 98.583024,122.49333 c 0,1.2 -0.4,3 -0.7,4 -0.5,1.7 -0.5,1.7 0.6,0 0.6,-1 0.9,-2.8 0.7,-4 -0.4,-2.2 -0.4,-2.2 -0.6,0 z"
     id="path28"
     style="fill:#ff2d00;fill-opacity:1;stroke:none;stroke-width:0.1" />
  <path
     d="m 269.68302,123.79333 c 0,1.9 0.2,2.7 0.5,1.7 0.2,-0.9 0.2,-2.5 0,-3.5 -0.3,-0.9 -0.5,-0.1 -0.5,1.8 z"
     id="path30"
     style="fill:#ff2d00;fill-opacity:1;stroke:none;stroke-width:0.1" />
  <path
     d="m 238.28302,125.79333 c -0.9,1.7 -1.3,3 -0.9,3 1.4,0 3.3,-2.8 2.9,-4.4 -0.2,-1.1 -0.8,-0.7 -2,1.4 z"
     id="path32"
     style="fill:#ff2d00;fill-opacity:1;stroke:none;stroke-width:0.1" />
  <path
     d="m 295.28302,125.79333 c -0.9,1.7 -1.3,3 -0.9,3 1.4,0 3.3,-2.8 2.9,-4.4 -0.2,-1.1 -0.8,-0.7 -2,1.4 z"
     id="path34"
     style="fill:#ff2d00;fill-opacity:1;stroke:none;stroke-width:0.1" />
  <path
     d="m 27.683024,126.89333 c -1.3,1.6 -1.9,2.9 -1.5,2.9 1.1,0 5.3,-4.3 5.3,-5.3 0,-1.5 -1.6,-0.5 -3.8,2.4 z"
     id="path36"
     style="fill:#ff2d00;fill-opacity:1;stroke:none;stroke-width:0.1" />
  <path
     d="m 175.68302,126.49333 c -1.3,1.4 -2.1,2.8 -1.8,3.1 0.7,0.6 5.6,-3.7 5.6,-5 0,-1.4 -1.4,-0.7 -3.8,1.9 z"
     id="path38"
     style="fill:#ff2d00;fill-opacity:1;stroke:none;stroke-width:0.1" />
  <path
     d="m 225.98302,126.79333 c -0.3,0.5 -0.2,1 0.4,1 0.5,0 1.3,-0.5 1.6,-1 0.3,-0.6 0.2,-1 -0.4,-1 -0.5,0 -1.3,0.4 -1.6,1 z"
     id="path40"
     style="fill:#ff2d00;fill-opacity:1;stroke:none;stroke-width:0.1" />
  <path
     d="m 283.48302,126.89333 c 0,0.5 0.5,0.7 1,0.4 0.6,-0.3 1,-0.8 1,-1.1 0,-0.2 -0.4,-0.4 -1,-0.4 -0.5,0 -1,0.5 -1,1.1 z"
     id="path42"
     style="fill:#ff2d00;fill-opacity:1;stroke:none;stroke-width:0.1" />
  <path
     d="m 11.983024,129.29333 c -1.8,1.7 -2.5000004,3.4 -2.4000004,5.7 0.1,2.7 0.3,2.9 0.6000004,0.8 0.7,-3.3 3.9,-7.3 6.6,-8.2 2.2,-0.6 2.2,-0.6 -0.1,-0.7 -1.3,-0.1 -3.4,1 -4.7,2.4 z"
     id="path44"
     style="fill:#ff2d00;fill-opacity:1;stroke:none;stroke-width:0.1" />
  <path
     d="m 83.983024,127.89333 c -0.4,0.6 -0.5,1.2 -0.2,1.5 0.2,0.3 0.7,-0.2 1,-1.1 0.7,-1.7 0.1,-2 -0.8,-0.4 z"
     id="path46"
     style="fill:#ff2d00;fill-opacity:1;stroke:none;stroke-width:0.1" />
  <path
     d="m 159.98302,129.29333 c -1.6,1.5 -2.5,3.5 -2.4,5.2 0.1,2.1 0.3,2.3 0.6,0.8 0.8,-3 4.2,-6.9 6.6,-7.7 2.2,-0.6 2.2,-0.6 -0.1,-0.7 -1.3,-0.1 -3.4,1 -4.7,2.4 z"
     id="path48"
     style="fill:#ff2d00;fill-opacity:1;stroke:none;stroke-width:0.1" />
  <path
     d="m 261.28302,140.29333 c -0.2,7.4 0,13.5 0.5,13.5 0.4,0 0.7,-6.1 0.7,-13.5 0,-7.4 -0.2,-13.5 -0.4,-13.5 -0.3,0 -0.6,6.1 -0.8,13.5 z"
     id="path50"
     style="fill:#ff2d00;fill-opacity:1;stroke:none;stroke-width:0.1" />
  <path
     d="m 95.283024,137.29333 c -0.2,1.9 0,3.5 0.4,3.5 0.4,0 0.8,-1.6 0.8,-3.5 0,-1.9 -0.2,-3.5 -0.4,-3.5 -0.2,0 -0.6,1.6 -0.8,3.5 z"
     id="path52"
     style="fill:#ff2d00;fill-opacity:1;stroke:none;stroke-width:0.1" />
  <path
     d="m 45.283024,146.79333 c -0.2,3.9 0,7 0.5,7 0.4,0 0.7,-3.2 0.7,-7 0,-3.9 -0.2,-7 -0.4,-7 -0.2,0 -0.6,3.2 -0.8,7 z"
     id="path54"
     style="fill:#ff2d00;fill-opacity:1;stroke:none;stroke-width:0.1" />
  <path
     d="m 127.98302,147.49333 c -3.7,7.2 -4.1,8.3 -2,5.8 2.4,-2.9 5.7,-9.5 5.3,-10.6 -0.2,-0.6 -1.7,1.6 -3.3,4.8 z"
     id="path56"
     style="fill:#ff2d00;fill-opacity:1;stroke:none;stroke-width:0.1" />
  <path
     d="m 240.58302,143.99333 c -0.1,3.5 -4,7.9 -8.2,9.4 -2.3,0.8 -2.7,1.3 -1.4,1.3 2.7,0.1 8.1,-3.3 9.5,-5.9 0.6,-1.2 0.9,-3.3 0.7,-4.8 l -0.4,-2.7 z"
     id="path58"
     style="fill:#ff2d00;fill-opacity:1;stroke:none;stroke-width:0.1" />
  <path
     d="m 113.08302,146.49333 c -0.4,2.1 -0.9,4.6 -1.2,5.5 -0.3,1 -0.1,1.8 0.4,1.8 0.5,0 1.2,-2.3 1.5,-5.2 0.8,-6.1 0.2,-7.6 -0.7,-2.1 z"
     id="path60"
     style="fill:#ff2d00;fill-opacity:1;stroke:none;stroke-width:0.1" />
  <path
     d="m 297.48302,145.19333 c 0,2.4 -5,7.5 -8.3,8.6 l -3.2,1 3.5,-0.5 c 3.9,-0.6 9,-5.3 9,-8.5 0,-1.1 -0.2,-2 -0.5,-2 -0.3,0 -0.5,0.6 -0.5,1.4 z"
     id="path62"
     style="fill:#ff2d00;fill-opacity:1;stroke:none;stroke-width:0.1" />
  <path
     d="m 66.783024,150.29333 c 0,2.2 0.2,3 0.4,1.7 0.2,-1.2 0.2,-3 0,-4 -0.3,-0.9 -0.5,0.1 -0.4,2.3 z"
     id="path64"
     style="fill:#ff2d00;fill-opacity:1;stroke:none;stroke-width:0.1" />
  <path
     d="m 98.583024,148.99333 c 0,0.9 -0.4,2.5 -0.7,3.5 -0.5,1.4 -0.4,1.5 0.5,0.7 0.7,-0.7 1.1,-2.2 0.8,-3.5 -0.2,-1.3 -0.5,-1.6 -0.6,-0.7 z"
     id="path66"
     style="fill:#ff2d00;fill-opacity:1;stroke:none;stroke-width:0.1" />
  <path
     d="m 26.583024,151.39333 c -2,1.4 -2.8,2.4 -1.8,2.4 0.9,0 2.9,-1.1 4.4,-2.5 3.6,-3.1 1.9,-3.1 -2.6,0.1 z"
     id="path68"
     style="fill:#ff2d00;fill-opacity:1;stroke:none;stroke-width:0.1" />
  <path
     d="m 174.58302,151.39333 c -1.9,1.3 -3,2.4 -2.5,2.4 1.1,0 7.4,-3.8 7.4,-4.5 0,-1 -1.5,-0.3 -4.9,2.1 z"
     id="path70"
     style="fill:#ff2d00;fill-opacity:1;stroke:none;stroke-width:0.1" />
  <path
     d="m 189.68302,151.29333 c -0.6,1.4 -0.8,2.5 -0.3,2.5 0.4,0 1.3,-1.1 1.9,-2.5 0.6,-1.4 0.8,-2.5 0.3,-2.5 -0.4,0 -1.3,1.1 -1.9,2.5 z"
     id="path72"
     style="fill:#ff2d00;fill-opacity:1;stroke:none;stroke-width:0.1" />
  <path
     d="m 142.58302,152.39333 c 0,1.1 0.3,1.4 0.6,0.6 0.3,-0.7 0.2,-1.6 -0.1,-1.9 -0.3,-0.4 -0.6,0.2 -0.5,1.3 z"
     id="path74"
     style="fill:#ff2d00;fill-opacity:1;stroke:none;stroke-width:0.1" />
  <path
     d="m 213.98302,152.79333 c -0.3,0.5 -0.1,1 0.4,1 0.6,0 1.1,-0.5 1.1,-1 0,-0.6 -0.2,-1 -0.4,-1 -0.3,0 -0.8,0.4 -1.1,1 z"
     id="path76"
     style="fill:#ff2d00;fill-opacity:1;stroke:none;stroke-width:0.1" />
  <path
     d="m 18.783024,154.49333 c 0.9,0.2 2.3,0.2 3,0 0.6,-0.3 -0.1,-0.5 -1.8,-0.5 -1.6,0 -2.2,0.2 -1.2,0.5 z"
     id="path78"
     style="fill:#ff2d00;fill-opacity:1;stroke:none;stroke-width:0.1" />
  <path
     d="m 166.28302,154.49333 c 0.6,0.2 1.8,0.2 2.5,0 0.6,-0.3 0.1,-0.5 -1.3,-0.5 -1.4,0 -1.9,0.2 -1.2,0.5 z"
     id="path80"
     style="fill:#ff2d00;fill-opacity:1;stroke:none;stroke-width:0.1" />
</svg>
