<?xml version="1.0" encoding="UTF-8" standalone="no"?>
<svg
   version="1.0"
   width="100pt"
   height="100pt"
   viewBox="0 0 100 100"
   preserveAspectRatio="xMidYMid meet"
   id="svg84"
   sodipodi:docname="logo.svg"
   inkscape:version="1.1 (c68e22c387, 2021-05-23)"
   xmlns:inkscape="http://www.inkscape.org/namespaces/inkscape"
   xmlns:sodipodi="http://sodipodi.sourceforge.net/DTD/sodipodi-0.dtd"
   xmlns="http://www.w3.org/2000/svg"
   xmlns:svg="http://www.w3.org/2000/svg">
  <defs
     id="defs88" />
  <sodipodi:namedview
     id="namedview86"
     pagecolor="#505050"
     bordercolor="#ffffff"
     borderopacity="1"
     inkscape:pageshadow="0"
     inkscape:pageopacity="0"
     inkscape:pagecheckerboard="1"
     inkscape:document-units="pt"
     showgrid="false"
     inkscape:zoom="2.3493976"
     inkscape:cx="64.058974"
     inkscape:cy="87.25641"
     inkscape:window-width="1366"
     inkscape:window-height="706"
     inkscape:window-x="-8"
     inkscape:window-y="-8"
     inkscape:window-maximized="1"
     inkscape:current-layer="g82" />
  <g
     transform="matrix(0.09989948,0,0,-0.1,-101.93191,146.59718)"
     fill="#000000"
     stroke="none"
     id="g82">
    <path
       d="m 1400.5339,1454.1904 c -316.9919,-81.9841 -471.69157,-420.8518 -323.6355,-707.79633 61.6901,-119.33245 226.8296,-244.13051 356.8532,-270.54762 246.7601,-49.19047 521.0436,91.09348 576.0901,294.23193 7.5926,30.06084 12.338,55.56698 11.3889,57.38888 -1.8982,0.9109 -18.0325,-24.59523 -36.065,-58.29982 -18.0324,-33.70458 -38.9121,-62.8545 -46.5048,-64.67637 -11.3889,-3.64374 -12.338,-1.82187 -3.7963,8.19842 17.0834,20.04056 42.7085,133.90737 48.403,208.60407 2.8472,50.1014 1.8981,64.6764 -5.6945,54.6561 -5.6944,-7.2875 -10.4398,-20.0406 -10.4398,-27.3281 0,-17.3077 -67.3845,-154.85888 -74.9772,-152.12608 -2.8472,0.91094 -31.3195,-24.59524 -61.69,-55.56702 -40.8103,-40.99206 -77.8244,-67.40917 -128.1255,-91.09347 -66.4354,-31.88272 -76.8753,-33.70459 -157.5468,-33.70459 -60.741,0.91094 -93.9587,5.46561 -113.8893,15.48589 -16.1344,8.19842 -44.6067,21.86244 -63.5882,30.06085 -62.6392,27.32804 -118.6347,82.89506 -156.5978,156.68082 -30.3705,59.2107 -35.1159,78.3403 -38.9122,148.4823 -4.7454,86.53884 2.8472,116.59974 46.5048,204.96034 115.7874,235.0212 471.6915,255.9727 635.8819,38.2593 15.1853,-20.0406 27.5233,-31.8827 27.5233,-26.4171 0,5.4656 -23.727,34.6155 -52.1993,63.7654 -38.9122,40.0812 -71.1808,62.8545 -125.2782,87.4498 -40.8103,19.1296 -81.6207,38.2592 -90.1624,42.8139 -29.4214,14.5749 -150.9033,9.1093 -220.186,-10.0203 -36.0649,-10.0203 -68.3336,-16.3968 -70.2317,-13.664 -2.8472,2.7328 19.9306,15.4859 50.3011,28.239 38.9122,17.3077 77.8244,26.4171 125.2782,29.1499 37.9631,2.7328 69.2827,7.2875 69.2827,10.9312 0,9.1093 80.6716,-5.4656 132.8709,-24.5952 97.7549,-34.6156 178.4265,-97.4701 244.862,-190.3854 6.6435,-10.0203 4.7453,-3.6437 -2.8473,12.7531 -8.5417,15.4859 -12.338,29.1499 -8.5417,29.1499 2.8473,0 -8.5417,16.3968 -24.676,36.4374 -16.1343,20.0405 -33.2177,34.6155 -37.014,31.8827 -4.7454,-1.8219 -21.8288,12.7531 -38.9122,33.7046 -74.028,87.4497 -291.3668,139.373 -433.7284,102.9356 z m 491.6221,-156.6808 c 12.338,-14.5749 11.389,-15.4859 -2.8472,-3.6437 -9.4908,6.3765 -17.0834,13.664 -17.0834,15.4859 0,7.2875 7.5926,2.7328 19.9306,-11.8422 z"
       id="path2"
       style="fill:#000000;fill-opacity:1;stroke-width:0.92981" />
  </g>
</svg>
